#!OML:ASF F:\VICON\USERDATA\INSTALL\rory3\rory3.ASF
:FULLY-SPECIFIED
:DEGREES
17
root -10.2949 14.7137 -8.11246 14.7894 35.9055 7.35801
lowerback 29.9349 1.38708 -2.1165
upperback 7.58969 1.64048 2.23897
thorax -8.0186 0.916579 3.13887
lowerneck -18.3184 -9.58126 -7.28483
upperneck 2.17005 -11.747 7.69577
head 4.41626 -5.4438 2.42184
rclavicle -7.39479e-014 0
rhumerus -7.92288 -28.2733 -49.8462
rradius 63.3874
rwrist 27.2155
rhand -30.1998 -12.4978
rfingers 7.12502
rthumb -3.51044 -42.4487
lclavicle -7.39479e-014 0
lhumerus -44.5948 35.2043 51.4456
lradius 56.3543
lwrist 3.03029
lhand -31.1971 38.3042
lfingers 7.12502
lthumb -4.47342 68.2369
rfemur -59.8115 -25.9058 22.9801
rtibia 89.8095
rfoot -28.7812 -9.54403
rtoes -2.52663
lfemur -51.543 -0.410905 -7.15258
ltibia 69.904
lfoot -25.5627 -12.3882
ltoes -18.2761
18
root -10.3292 14.728 -8.08544 14.6953 35.6275 7.07542
lowerback 29.9483 1.35979 -1.8906
upperback 7.43476 1.6604 2.19375
thorax -8.19679 0.923432 2.94928
lowerneck -18.3074 -9.3563 -7.20865
upperneck 2.43723 -11.4656 7.54287
head 4.46438 -5.31023 2.39039
rclavicle 2.62396e-014 5.08889e-014
rhumerus -8.08376 -28.0329 -49.9542
rradius 63.4415
rwrist 27.2049
rhand -30.3505 -12.453
rfingers 7.12502
rthumb -3.65594 -42.4014
lclavicle 2.62396e-014 5.08889e-014
lhumerus -44.9196 35.6881 50.9879
lradius 55.9228
lwrist 2.69187
lhand -30.0007 36.1828
lfingers 7.12502
lthumb -3.31815 66.1367
rfemur -59.8326 -25.6752 23.5008
rtibia 89.5994
rfoot -28.7839 -9.54873
rtoes -2.32884
lfemur -51.3726 -0.819129 -6.20098
ltibia 69.8821
lfoot -23.9086 -14.8874
ltoes -8.1958
19
root -10.358 14.7257 -8.05279 14.4953 35.4659 6.78125
lowerback 30.0146 1.26298 -1.56906
upperback 7.35007 1.62665 2.17336
thorax -8.31549 0.903308 2.75128
lowerneck -18.548 -9.20743 -7.32696
upperneck 2.86963 -11.2518 7.59105
head 4.63138 -5.192 2.42942
rclavicle 3.65764e-014 -2.62396e-014
rhumerus -8.07668 -27.805 -50.0473
rradius 63.3811
rwrist 27.3422
rhand -30.4376 -12.4766
rfingers 7.12502
rthumb -3.74 -42.4235
lclavicle 3.65764e-014 -2.62396e-014
lhumerus -45.1037 35.8836 50.7283
lradius 55.5832
lwrist 2.64428
lhand -31.1218 37.7548
lfingers 7.12502
lthumb -4.4007 67.6891
rfemur -59.6923 -25.5658 23.9553
rtibia 89.4739
rfoot -28.9559 -9.44893
rtoes -1.64066
lfemur -51.5394 0.126849 -6.92347
ltibia 69.5883
lfoot -26.2605 -7.77963
ltoes -32.0308
20
root -10.3634 14.7489 -8.06198 14.743 35.4574 7.09093
lowerback 30.2834 0.882632 -0.971796
upperback 7.1675 1.28702 1.86404
thorax -8.6143 0.735955 2.17759
lowerneck -18.6068 -8.99586 -7.21996
upperneck 3.03351 -10.9966 7.57442
head 4.6678 -5.06237 2.43237
rclavicle -3.57812e-014 5.00937e-014
rhumerus -7.75591 -27.5607 -50.2164
rradius 63.0884
rwrist 27.4259
rhand -30.9489 -12.0602
rfingers 7.12502
rthumb -4.23382 -41.9979
lclavicle -3.57812e-014 5.00937e-014
lhumerus -45.3218 36.4201 50.2847
lradius 55.1774
lwrist 2.42932
lhand -31.1021 37.8778
lfingers 7.12502
lthumb -4.38175 67.8125
rfemur -59.6579 -26.1586 23.784
rtibia 89.2605
rfoot -28.9904 -9.05277
rtoes -1.96842
lfemur -51.3264 -1.00431 -6.49482
ltibia 69.657
lfoot -24.7122 -11.3197
ltoes -20.9047
21
root -10.3989 14.7689 -8.0376 14.6456 35.2105 6.98653
lowerback 30.3081 0.859922 -0.888056
upperback 7.12191 1.27297 1.79637
thorax -8.67452 0.726883 2.05774
lowerneck -18.5616 -8.825 -7.1775
upperneck 3.04749 -10.7776 7.53651
head 4.64589 -4.95726 2.4407
rclavicle 2.46493e-014 -9.54166e-015
rhumerus -7.22402 -27.5188 -50.3975
rradius 62.5997
rwrist 27.6634
rhand -31.3542 -11.9517
rfingers 7.12502
rthumb -4.62518 -41.8813
lclavicle 2.46493e-014 -9.54166e-015
lhumerus -45.4206 37.0583 49.9127
lradius 54.6665
lwrist 2.1017
lhand -30.1055 35.9775
lfingers 7.12502
lthumb -3.41936 65.9298
rfemur -59.4443 -25.9429 24.0535
rtibia 88.9807
rfoot -28.9889 -9.05664
rtoes -2.08632
lfemur -51.0458 -1.45225 -5.7841
ltibia 69.6125
lfoot -23.3366 -12.8779
ltoes -13.6318
22
root -10.4449 14.785 -7.98011 14.1456 34.8473 6.48839
lowerback 29.9455 1.15843 -1.21932
upperback 7.36262 1.58642 2.11323
thorax -8.25663 0.876577 2.4956
lowerneck -18.6556 -8.74252 -7.20481
upperneck 3.07129 -10.6346 7.32211
head 4.6449 -4.89831 2.39171
rclavicle -5.96354e-014 8.5875e-014
rhumerus -7.57489 -27.6154 -50.2657
rradius 63.2148
rwrist 27.7907
rhand -31.3712 -11.5299
rfingers 7.12502
rthumb -4.64161 -41.4591
lclavicle -5.96354e-014 8.5875e-014
lhumerus -45.2635 36.6579 50.4531
lradius 54.7231
lwrist 2.6935
lhand -31.3387 38.3509
lfingers 7.12502
lthumb -4.61017 68.2807
rfemur -58.9433 -25.412 24.6323
rtibia 88.6717
rfoot -29.0887 -9.09626
rtoes -1.55146
lfemur -50.6156 -1.25505 -5.0406
ltibia 69.5782
lfoot -22.917 -13.1787
ltoes -15.2099
23
root -10.4822 14.8029 -7.90972 13.7186 34.4887 6.23604
lowerback 29.7022 1.42759 -1.67763
upperback 7.49825 1.82211 2.39359
thorax -8.01931 0.991099 2.9949
lowerneck -18.7744 -8.65538 -7.22698
upperneck 3.24139 -10.4772 6.95245
head 4.68265 -4.84024 2.292
rclavicle -1.66979e-014 -1.59028e-015
rhumerus -7.53733 -27.4549 -50.0825
rradius 63.3463
rwrist 27.6477
rhand -32.5032 -9.96672
rfingers 7.12502
rthumb -5.73454 -39.8691
lclavicle -1.66979e-014 -1.59028e-015
lhumerus -45.3882 36.4588 50.6199
lradius 54.445
lwrist 2.84824
lhand -31.1954 38.4631
lfingers 7.12502
lthumb -4.47182 68.3959
rfemur -58.2955 -25.1327 24.9043
rtibia 88.3652
rfoot -29.2682 -8.87656
rtoes -0.54075
lfemur -50.201 -1.00814 -4.77346
ltibia 69.5308
lfoot -23.197 -11.266
ltoes -23.1172
24
root -10.5118 14.8172 -7.86264 13.6053 34.195 6.19175
lowerback 29.486 1.54066 -1.87439
upperback 7.5088 1.90723 2.40011
thorax -7.9145 1.03124 3.08789
lowerneck -18.8683 -8.42499 -6.79057
upperneck 3.33901 -10.2198 6.45885
head 4.65895 -4.73565 2.09851
rclavicle -2.22639e-014 -4.92986e-014
rhumerus -9.37041 -27.6198 -50.4128
rradius 65.1493
rwrist 27.8365
rhand -31.1891 -10.9583
rfingers 7.12502
rthumb -4.46571 -40.8913
lclavicle -2.22639e-014 -4.92986e-014
lhumerus -45.3219 36.9542 50.3618
lradius 53.6819
lwrist 2.43125
lhand -30.1539 36.1377
lfingers 7.12502
lthumb -3.46604 66.0892
rfemur -58.0235 -25.0316 25.0731
rtibia 88.1148
rfoot -29.3056 -8.7586
rtoes -0.433894
lfemur -50.1648 -0.955217 -4.66344
ltibia 69.6674
lfoot -23.2014 -9.73608
ltoes -28.5652
25
root -10.5477 14.8287 -7.84094 13.3832 33.912 5.62611
lowerback 29.4513 1.56214 -1.55698
upperback 7.36963 2.02432 2.44081
thorax -8.05683 1.08214 2.90775
lowerneck -18.576 -8.14617 -6.5225
upperneck 3.30331 -9.90267 6.20606
head 4.55697 -4.59827 2.0251
rclavicle 4.53229e-014 -2.62396e-014
rhumerus -9.8531 -27.578 -50.6111
rradius 65.4232
rwrist 28.0702
rhand -31.5639 -9.7954
rfingers 7.12502
rthumb -4.82761 -39.7204
lclavicle 4.53229e-014 -2.62396e-014
lhumerus -45.403 36.9792 50.1769
lradius 53.3875
lwrist 2.647
lhand -31.2454 37.9112
lfingers 7.12502
lthumb -4.52011 67.843
rfemur -58.0583 -24.6794 25.8488
rtibia 87.8265
rfoot -29.2324 -8.76465
rtoes -0.193141
lfemur -50.4863 -0.748345 -3.92904
ltibia 70.0114
lfoot -22.8424 -9.6799
ltoes -31.1594
26
root -10.5575 14.8525 -7.87156 13.5152 33.7416 5.51491
lowerback 29.7809 1.33819 -0.840017
upperback 7.17873 1.9336 2.32166
thorax -8.40289 1.03023 2.3865
lowerneck -18.6136 -7.91818 -6.37512
upperneck 3.3171 -9.59513 5.84873
head 4.5215 -4.46631 1.92472
rclavicle -5.88403e-014 8.42847e-014
rhumerus -9.48488 -27.5091 -50.6278
rradius 65.1
rwrist 28.2287
rhand -32.2057 -9.00271
rfingers 7.12502
rthumb -5.44732 -38.9127
lclavicle -5.88403e-014 8.42847e-014
lhumerus -45.508 36.9482 50.3116
lradius 53.38
lwrist 2.90162
lhand -31.1031 37.9004
lfingers 7.12502
lthumb -4.38273 67.835
rfemur -58.2523 -24.8858 26.1019
rtibia 87.5197
rfoot -29.0452 -8.49757
rtoes -0.454338
lfemur -51.1565 -1.05885 -3.71093
ltibia 70.4954
lfoot -22.0703 -9.2109
ltoes -33.3862
27
root -10.5814 14.8766 -7.85809 13.4573 33.3777 5.57007
lowerback 29.9478 1.36466 -0.805734
upperback 7.17405 1.97217 2.28836
thorax -8.48838 1.0472 2.31362
lowerneck -18.906 -7.7686 -6.48067
upperneck 3.4836 -9.34623 5.72947
head 4.60164 -4.34584 1.91907
rclavicle 6.44062e-014 -4.6118e-014
rhumerus -8.81447 -27.3534 -50.4941
rradius 64.63
rwrist 28.1262
rhand -32.0328 -9.1035
rfingers 7.12502
rthumb -5.28043 -39.0177
lclavicle 6.44062e-014 -4.6118e-014
lhumerus -45.5819 36.9165 50.4994
lradius 53.4458
lwrist 3.13617
lhand -30.5247 37.5235
lfingers 7.12502
lthumb -3.82412 67.469
rfemur -57.982 -24.8882 26.1404
rtibia 87.1843
rfoot -29.0061 -8.22086
rtoes 0.0378915
lfemur -51.39 -1.1659 -3.59616
ltibia 70.9574
lfoot -20.7665 -8.57221
ltoes -34.6558
28
root -10.619 14.9092 -7.80162 13.1657 33.2143 5.58467
lowerback 29.9465 1.44106 -1.06033
upperback 7.25182 1.99697 2.31742
thorax -8.40882 1.06256 2.48544
lowerneck -19.1222 -7.70509 -6.58435
upperneck 3.85938 -9.2474 5.81465
head 4.75635 -4.28659 1.95898
rclavicle 3.26007e-014 -6.20208e-014
rhumerus -8.0236 -27.2426 -50.437
rradius 63.8681
rwrist 27.9803
rhand -31.9641 -8.84508
rfingers 7.12502
rthumb -5.21405 -38.7609
lclavicle 3.26007e-014 -6.20208e-014
lhumerus -45.648 36.7404 50.5071
lradius 53.4321
lwrist 3.47465
lhand -30.7277 37.8286
lfingers 7.12502
lthumb -4.02016 67.7704
rfemur -57.303 -24.9721 26.2419
rtibia 86.8006
rfoot -29.1719 -7.98119
rtoes 1.08983
lfemur -51.3341 -1.2826 -3.31549
ltibia 71.3609
lfoot -19.4141 -8.66749
ltoes -35.459
29
root -10.6753 14.9226 -7.7311 12.6615 32.8401 4.90132
lowerback 29.6937 1.7964 -1.28796
upperback 7.30301 2.40718 2.61053
thorax -8.27245 1.25714 2.80292
lowerneck -19.0951 -7.65019 -6.47051
upperneck 4.03116 -9.17937 5.50959
head 4.78065 -4.27108 1.85225
rclavicle -5.40694e-014 -4.77083e-015
rhumerus -8.2834 -27.3206 -50.2981
rradius 64.0253
rwrist 28.0037
rhand -31.5975 -9.38718
rfingers 7.12502
rthumb -4.8601 -39.3114
lclavicle -5.40694e-014 -4.77083e-015
lhumerus -45.5933 36.1714 50.8393
lradius 53.5739
lwrist 4.04537
lhand -32.2085 38.9167
lfingers 7.12502
lthumb -5.45005 68.8266
rfemur -56.8714 -24.3357 27.1474
rtibia 86.4016
rfoot -29.2254 -8.23127
rtoes 1.54742
lfemur -51.3957 -0.821239 -2.22769
ltibia 71.8383
lfoot -18.0315 -9.68523
ltoes -35.6657
30
root -10.687 14.9459 -7.71482 12.4877 32.8909 4.72359
lowerback 29.7737 1.63678 -0.797251
upperback 7.25553 2.35324 2.64802
thorax -8.34643 1.22523 2.57867
lowerneck -19.1293 -7.40718 -6.23962
upperneck 4.09186 -8.8515 4.94715
head 4.74724 -4.1425 1.67639
rclavicle 6.91771e-014 -2.54444e-014
rhumerus -9.25706 -27.4374 -50.3648
rradius 65.0897
rwrist 28.3988
rhand -31.0024 -10.1052
rfingers 7.12502
rthumb -4.28545 -40.0418
lclavicle 6.91771e-014 -2.54444e-014
lhumerus -45.5758 35.7039 51.1761
lradius 53.6121
lwrist 4.39941
lhand -33.0564 39.3418
lfingers 7.12502
lthumb -6.26865 69.229
rfemur -56.509 -24.7957 27.428
rtibia 86.0515
rfoot -29.4079 -8.05074
rtoes 0.915055
lfemur -51.8326 -1.17292 -1.81123
ltibia 72.447
lfoot -16.5421 -10.0784
ltoes -36.3074
31
root -10.7104 14.9698 -7.68655 12.3777 32.6291 4.67603
lowerback 29.7297 1.65276 -0.744452
upperback 7.29323 2.38601 2.63955
thorax -8.28194 1.23884 2.52755
lowerneck -19.3056 -7.15325 -6.29266
upperneck 4.16177 -8.46816 4.74233
head 4.76791 -3.96524 1.65626
rclavicle 4.37326e-014 -5.24792e-014
rhumerus -9.50352 -27.4092 -50.4655
rradius 65.3704
rwrist 28.514
rhand -31.4746 -9.57156
rfingers 7.12502
rthumb -4.74145 -39.4985
lclavicle 4.37326e-014 -5.24792e-014
lhumerus -45.5978 36.1739 51.0762
lradius 53.2885
lwrist 4.00801
lhand -31.1822 38.1973
lfingers 7.12502
lthumb -4.45906 68.1303
rfemur -56.1524 -24.8028 27.5613
rtibia 85.6837
rfoot -29.6374 -7.85748
rtoes 0.632788
lfemur -52.2736 -1.09687 -1.58638
ltibia 73.1215
lfoot -15.009 -10.7202
ltoes -37.3985
